<svg width="25" height="25" viewBox="0 0 25 25" fill="none" xmlns="http://www.w3.org/2000/svg">
<rect width="25" height="25" rx="12.5" fill="url(#paint0_linear_317_869)"/>
<path d="M5 12.6845L7.82224 20.3257L14.004 18.2543C14.004 18.2543 14.1604 18.4888 14.4584 18.4413C14.7572 18.3935 14.8729 17.8941 14.8729 17.8941L21.792 16.3864L17.7147 7.7331C17.7147 7.7331 14.7096 7.68662 11.7446 10.2753C11.7446 10.2753 7.40918 9.45986 5 12.6845" fill="url(#paint1_linear_317_869)"/>
<path d="M14.4914 17.7734L14.5663 17.2631C14.5663 17.2631 17.6266 15.1973 21.1568 15.4762L20.8768 16.1134C20.8768 16.1134 18.3536 15.8218 14.4914 17.7734Z" fill="white"/>
<path d="M8.56257 18.8773L5.73087 11.7043C5.65396 11.7136 5.50124 11.8786 5.42728 12.0499L8.27169 19.3479C8.27169 19.3479 12.0681 17.1688 14.4914 17.7733L14.443 17.52C10.9178 16.7463 8.56257 18.8773 8.56257 18.8773" fill="white"/>
<path d="M8.72473 18.6148L8.27167 19.3479C8.27167 19.3479 12.2452 17.189 14.4914 17.7733L14.5663 17.263C14.5663 17.263 11.4538 16.6982 8.72473 18.6148Z" fill="white"/>
<path d="M8.76203 17.7521L6.02755 10.8518C5.95514 10.9606 5.88847 11.0769 5.82831 11.2014L8.72482 18.6147C8.72482 18.6147 11.2494 15.8677 14.5088 17.2439C12.2184 16.1529 8.76203 17.7521 8.76203 17.7521Z" fill="white"/>
<path d="M11.451 9.60632C11.451 9.60632 9.27824 8.62702 6.12512 9.82868L9.03667 17.3359C9.03667 17.3359 12.7416 16.2866 14.5168 17.2634L11.451 9.60632" fill="white"/>
<path d="M6.02745 10.8518C6.02745 10.8518 6.25956 10.7499 6.4771 10.737L6.6506 11.1844C6.6506 11.1844 6.34081 11.3884 6.26127 11.4421L6.02745 10.8518Z" fill="white"/>
<path d="M5.73082 11.7044C5.73082 11.7044 5.92153 11.6402 6.0003 11.642L5.78028 11.8296L5.73082 11.7044Z" fill="white"/>
<path d="M18.6866 11.8471L16.4346 7.15946C13.6079 7.55716 11.4508 9.60635 11.4508 9.60635L14.5166 17.2634C14.9816 15.1244 18.6866 11.8471 18.6866 11.8471Z" fill="white"/>
<path d="M17.2104 7.09427C17.082 7.09719 16.9549 7.10539 16.8285 7.1156L19.1949 11.9922C16.6465 13.6055 14.7688 16.8986 14.5663 17.2629H14.6003C18.0331 15.0973 21.1568 15.476 21.1568 15.476L17.2104 7.09427Z" fill="white"/>
<path d="M11.4508 9.60635C11.4508 9.60635 12.1073 6.80514 14.9166 3.99993L18.6866 11.8471C18.6866 11.8471 14.9776 14.9585 14.5166 17.2634L11.4508 9.60635Z" fill="white"/>
<path d="M7.82224 20.3255L5 12.6843V12.9515L7.81852 20.5688L7.82224 20.3255Z" fill="black"/>
<path d="M7.81854 20.5688L7.82226 20.3255L14.004 18.2541C14.004 18.2541 14.2501 18.531 14.4919 18.422C14.6934 18.3314 14.7425 18.2628 14.8729 17.8939L21.7921 16.3863L21.6784 16.6482L14.9568 18.0553C14.9568 18.0553 14.8848 18.4887 14.4491 18.6285C14.1293 18.7311 13.9431 18.4489 13.9431 18.4489L7.81854 20.5688Z" fill="#8E2A15"/>
<path d="M11.4508 9.60657L14.5166 17.2636L14.4913 17.7734" stroke="#8E2A15" stroke-width="0.5" stroke-miterlimit="10" stroke-linecap="round"/>
<defs>
<linearGradient id="paint0_linear_317_869" x1="25" y1="12.6087" x2="1.38898e-07" y2="12.6087" gradientUnits="userSpaceOnUse">
<stop stop-color="#8E2A15"/>
<stop offset="0.492973" stop-color="#DC5B25"/>
<stop offset="1" stop-color="#8E2A15"/>
</linearGradient>
<linearGradient id="paint1_linear_317_869" x1="11.8091" y1="10.5246" x2="16.75" y2="19.8652" gradientUnits="userSpaceOnUse">
<stop stop-color="#8E2A15"/>
<stop offset="1" stop-color="#8E2A15"/>
</linearGradient>
</defs>
</svg>
