<svg width="352" height="80" viewBox="0 0 352 80" fill="none" xmlns="http://www.w3.org/2000/svg">
<g filter="url(#filter0_di_222_390)">
<rect x="6" y="3" width="340" height="68" rx="34" fill="url(#paint0_linear_222_390)"/>
</g>
<g filter="url(#filter1_d_222_390)">
<path d="M72.2914 27.83V46.03H68.1054V31.262H59.8894V46.03H55.7034V27.83H72.2914ZM85.487 46.342C83.5977 46.342 81.8903 45.9347 80.365 45.12C78.857 44.3054 77.6697 43.1874 76.803 41.766C75.9537 40.3274 75.529 38.7154 75.529 36.93C75.529 35.1447 75.9537 33.5414 76.803 32.12C77.6697 30.6814 78.857 29.5547 80.365 28.74C81.8903 27.9254 83.5977 27.518 85.487 27.518C87.3763 27.518 89.075 27.9254 90.583 28.74C92.091 29.5547 93.2783 30.6814 94.145 32.12C95.0117 33.5414 95.445 35.1447 95.445 36.93C95.445 38.7154 95.0117 40.3274 94.145 41.766C93.2783 43.1874 92.091 44.3054 90.583 45.12C89.075 45.9347 87.3763 46.342 85.487 46.342ZM85.487 42.754C86.5617 42.754 87.5323 42.5114 88.399 42.026C89.2657 41.5234 89.9417 40.83 90.427 39.946C90.9297 39.062 91.181 38.0567 91.181 36.93C91.181 35.8034 90.9297 34.798 90.427 33.914C89.9417 33.03 89.2657 32.3454 88.399 31.86C87.5323 31.3574 86.5617 31.106 85.487 31.106C84.4123 31.106 83.4417 31.3574 82.575 31.86C81.7083 32.3454 81.0237 33.03 80.521 33.914C80.0357 34.798 79.793 35.8034 79.793 36.93C79.793 38.0567 80.0357 39.062 80.521 39.946C81.0237 40.83 81.7083 41.5234 82.575 42.026C83.4417 42.5114 84.4123 42.754 85.487 42.754ZM115.278 27.83V46.03H111.092V31.262H102.876V46.03H98.6897V27.83H115.278ZM127.355 27.648C129.903 27.648 131.888 28.272 133.309 29.52C134.748 30.768 135.467 32.5187 135.467 34.772C135.467 36.904 134.817 38.5767 133.517 39.79C132.235 41.0034 130.432 41.61 128.109 41.61C127.347 41.61 126.601 41.532 125.873 41.376C125.163 41.22 124.391 40.96 123.559 40.596V46.03H119.399V35.266C119.399 32.822 120.075 30.9414 121.427 29.624C122.797 28.3067 124.773 27.648 127.355 27.648ZM127.381 38.438C128.612 38.438 129.557 38.126 130.215 37.502C130.891 36.878 131.229 35.994 131.229 34.85C131.229 33.6887 130.891 32.7874 130.215 32.146C129.557 31.5047 128.638 31.184 127.459 31.184C126.229 31.184 125.267 31.5394 124.573 32.25C123.897 32.9607 123.559 33.9574 123.559 35.24V37.268C124.079 37.632 124.669 37.918 125.327 38.126C126.003 38.334 126.688 38.438 127.381 38.438ZM147.288 46.342C145.398 46.342 143.691 45.9347 142.166 45.12C140.658 44.3054 139.47 43.1874 138.604 41.766C137.754 40.3274 137.33 38.7154 137.33 36.93C137.33 35.1447 137.754 33.5414 138.604 32.12C139.47 30.6814 140.658 29.5547 142.166 28.74C143.691 27.9254 145.398 27.518 147.288 27.518C149.177 27.518 150.876 27.9254 152.384 28.74C153.892 29.5547 155.079 30.6814 155.946 32.12C156.812 33.5414 157.246 35.1447 157.246 36.93C157.246 38.7154 156.812 40.3274 155.946 41.766C155.079 43.1874 153.892 44.3054 152.384 45.12C150.876 45.9347 149.177 46.342 147.288 46.342ZM147.288 42.754C148.362 42.754 149.333 42.5114 150.2 42.026C151.066 41.5234 151.742 40.83 152.228 39.946C152.73 39.062 152.982 38.0567 152.982 36.93C152.982 35.8034 152.73 34.798 152.228 33.914C151.742 33.03 151.066 32.3454 150.2 31.86C149.333 31.3574 148.362 31.106 147.288 31.106C146.213 31.106 145.242 31.3574 144.376 31.86C143.509 32.3454 142.824 33.03 142.322 33.914C141.836 34.798 141.594 35.8034 141.594 36.93C141.594 38.0567 141.836 39.062 142.322 39.946C142.824 40.83 143.509 41.5234 144.376 42.026C145.242 42.5114 146.213 42.754 147.288 42.754ZM160.491 27.83H175.181V31.184H164.677V34.928H169.721C171.922 34.928 173.595 35.3874 174.739 36.306C175.9 37.2247 176.481 38.5507 176.481 40.284C176.481 42.104 175.839 43.5167 174.557 44.522C173.274 45.5274 171.463 46.03 169.123 46.03H160.491V27.83ZM168.889 42.91C169.963 42.91 170.787 42.702 171.359 42.286C171.931 41.8527 172.217 41.2287 172.217 40.414C172.217 38.8194 171.107 38.022 168.889 38.022H164.677V42.91H168.889ZM188.37 46.342C186.48 46.342 184.773 45.9347 183.248 45.12C181.74 44.3054 180.552 43.1874 179.686 41.766C178.836 40.3274 178.412 38.7154 178.412 36.93C178.412 35.1447 178.836 33.5414 179.686 32.12C180.552 30.6814 181.74 29.5547 183.248 28.74C184.773 27.9254 186.48 27.518 188.37 27.518C190.259 27.518 191.958 27.9254 193.466 28.74C194.974 29.5547 196.161 30.6814 197.028 32.12C197.894 33.5414 198.328 35.1447 198.328 36.93C198.328 38.7154 197.894 40.3274 197.028 41.766C196.161 43.1874 194.974 44.3054 193.466 45.12C191.958 45.9347 190.259 46.342 188.37 46.342ZM188.37 42.754C189.444 42.754 190.415 42.5114 191.282 42.026C192.148 41.5234 192.824 40.83 193.31 39.946C193.812 39.062 194.064 38.0567 194.064 36.93C194.064 35.8034 193.812 34.798 193.31 33.914C192.824 33.03 192.148 32.3454 191.282 31.86C190.415 31.3574 189.444 31.106 188.37 31.106C187.295 31.106 186.324 31.3574 185.458 31.86C184.591 32.3454 183.906 33.03 183.404 33.914C182.918 34.798 182.676 35.8034 182.676 36.93C182.676 38.0567 182.918 39.062 183.404 39.946C183.906 40.83 184.591 41.5234 185.458 42.026C186.324 42.5114 187.295 42.754 188.37 42.754ZM214.183 36.54C215.292 36.8694 216.141 37.4067 216.731 38.152C217.32 38.8974 217.615 39.816 217.615 40.908C217.615 42.52 216.999 43.7767 215.769 44.678C214.555 45.5794 212.813 46.03 210.543 46.03H201.573V27.83H210.049C212.163 27.83 213.81 28.2374 214.989 29.052C216.167 29.8667 216.757 31.028 216.757 32.536C216.757 33.4374 216.531 34.2347 216.081 34.928C215.63 35.604 214.997 36.1414 214.183 36.54ZM205.759 35.37H209.685C210.603 35.37 211.297 35.188 211.765 34.824C212.233 34.4427 212.467 33.888 212.467 33.16C212.467 32.4494 212.224 31.9034 211.739 31.522C211.271 31.1407 210.586 30.95 209.685 30.95H205.759V35.37ZM210.387 42.91C212.363 42.91 213.351 42.13 213.351 40.57C213.351 39.062 212.363 38.308 210.387 38.308H205.759V42.91H210.387ZM229.032 27.518C230.713 27.518 232.178 27.8474 233.426 28.506C234.674 29.1647 235.644 30.1354 236.338 31.418C237.031 32.7007 237.378 34.252 237.378 36.072V46.03H233.166V41.662H224.846V46.03H220.686V36.072C220.686 34.252 221.032 32.7007 221.726 31.418C222.419 30.1354 223.39 29.1647 224.638 28.506C225.886 27.8474 227.35 27.518 229.032 27.518ZM233.166 38.282V35.682C233.166 34.174 232.793 33.0387 232.048 32.276C231.302 31.496 230.288 31.106 229.006 31.106C227.706 31.106 226.683 31.496 225.938 32.276C225.21 33.0387 224.846 34.174 224.846 35.682V38.282H233.166ZM255.061 32.926C253.501 32.0247 251.828 31.444 250.043 31.184V46.03H245.831V31.184C244.046 31.444 242.364 32.0247 240.787 32.926L239.357 29.78C240.605 29.0347 241.957 28.4714 243.413 28.09C244.869 27.7087 246.368 27.518 247.911 27.518C249.471 27.518 250.979 27.7087 252.435 28.09C253.908 28.4714 255.26 29.0347 256.491 29.78L255.061 32.926ZM267.664 33.316C269.848 33.316 271.573 33.8794 272.838 35.006C274.121 36.1327 274.762 37.71 274.762 39.738C274.762 41.8527 274.051 43.4907 272.63 44.652C271.209 45.8134 269.189 46.394 266.572 46.394C263.989 46.394 262.031 45.8134 260.696 44.652C259.361 43.4907 258.694 41.7834 258.694 39.53V27.83H262.854V34.382C264.501 33.6714 266.104 33.316 267.664 33.316ZM266.754 43.118C267.95 43.118 268.877 42.832 269.536 42.26C270.195 41.688 270.524 40.8907 270.524 39.868C270.524 38.8107 270.169 37.996 269.458 37.424C268.765 36.8347 267.837 36.54 266.676 36.54C266.035 36.54 265.376 36.644 264.7 36.852C264.024 37.0427 263.409 37.32 262.854 37.684V39.426C262.854 40.6047 263.192 41.5147 263.868 42.156C264.544 42.7974 265.506 43.118 266.754 43.118Z" fill="white" fill-opacity="0.95" shape-rendering="crispEdges"/>
</g>
<g filter="url(#filter2_d_222_390)">
<path d="M291 27.1499L305.151 34.179C306.783 34.99 306.839 37.2985 305.248 38.1877L291 46.1499" stroke="white" stroke-opacity="0.95" stroke-width="5" shape-rendering="crispEdges"/>
</g>
<defs>
<filter id="filter0_di_222_390" x="0.711111" y="0.711111" width="350.578" height="78.5778" filterUnits="userSpaceOnUse" color-interpolation-filters="sRGB">
<feFlood flood-opacity="0" result="BackgroundImageFix"/>
<feColorMatrix in="SourceAlpha" type="matrix" values="0 0 0 0 0 0 0 0 0 0 0 0 0 0 0 0 0 0 127 0" result="hardAlpha"/>
<feOffset dy="3"/>
<feGaussianBlur stdDeviation="2.64444"/>
<feComposite in2="hardAlpha" operator="out"/>
<feColorMatrix type="matrix" values="0 0 0 0 0 0 0 0 0 0 0 0 0 0 0 0 0 0 0.25 0"/>
<feBlend mode="normal" in2="BackgroundImageFix" result="effect1_dropShadow_222_390"/>
<feBlend mode="normal" in="SourceGraphic" in2="effect1_dropShadow_222_390" result="shape"/>
<feColorMatrix in="SourceAlpha" type="matrix" values="0 0 0 0 0 0 0 0 0 0 0 0 0 0 0 0 0 0 127 0" result="hardAlpha"/>
<feMorphology radius="6" operator="erode" in="SourceAlpha" result="effect2_innerShadow_222_390"/>
<feOffset/>
<feGaussianBlur stdDeviation="4"/>
<feComposite in2="hardAlpha" operator="arithmetic" k2="-1" k3="1"/>
<feColorMatrix type="matrix" values="0 0 0 0 1 0 0 0 0 1 0 0 0 0 1 0 0 0 0.25 0"/>
<feBlend mode="normal" in2="shape" result="effect2_innerShadow_222_390"/>
</filter>
<filter id="filter1_d_222_390" x="45.7034" y="17.5181" width="239.059" height="38.876" filterUnits="userSpaceOnUse" color-interpolation-filters="sRGB">
<feFlood flood-opacity="0" result="BackgroundImageFix"/>
<feColorMatrix in="SourceAlpha" type="matrix" values="0 0 0 0 0 0 0 0 0 0 0 0 0 0 0 0 0 0 127 0" result="hardAlpha"/>
<feOffset/>
<feGaussianBlur stdDeviation="5"/>
<feComposite in2="hardAlpha" operator="out"/>
<feColorMatrix type="matrix" values="0 0 0 0 0 0 0 0 0 0 0 0 0 0 0 0 0 0 0.25 0"/>
<feBlend mode="normal" in2="BackgroundImageFix" result="effect1_dropShadow_222_390"/>
<feBlend mode="normal" in="SourceGraphic" in2="effect1_dropShadow_222_390" result="shape"/>
</filter>
<filter id="filter2_d_222_390" x="279.781" y="14.9109" width="39.1287" height="43.4214" filterUnits="userSpaceOnUse" color-interpolation-filters="sRGB">
<feFlood flood-opacity="0" result="BackgroundImageFix"/>
<feColorMatrix in="SourceAlpha" type="matrix" values="0 0 0 0 0 0 0 0 0 0 0 0 0 0 0 0 0 0 127 0" result="hardAlpha"/>
<feOffset/>
<feGaussianBlur stdDeviation="5"/>
<feComposite in2="hardAlpha" operator="out"/>
<feColorMatrix type="matrix" values="0 0 0 0 0 0 0 0 0 0 0 0 0 0 0 0 0 0 0.25 0"/>
<feBlend mode="normal" in2="BackgroundImageFix" result="effect1_dropShadow_222_390"/>
<feBlend mode="normal" in="SourceGraphic" in2="effect1_dropShadow_222_390" result="shape"/>
</filter>
<linearGradient id="paint0_linear_222_390" x1="346" y1="37.2956" x2="6" y2="37.2956" gradientUnits="userSpaceOnUse">
<stop stop-color="#8E2A15"/>
<stop offset="0.492973" stop-color="#DC5B25"/>
<stop offset="1" stop-color="#8E2A15"/>
</linearGradient>
</defs>
</svg>
