<svg width="120" height="120" viewBox="0 0 120 120" fill="none" xmlns="http://www.w3.org/2000/svg">
<path d="M18.2392 68.4406C21.0804 57.8132 30.9676 36.1333 54.0552 25.5059C41.4823 39.4206 28.8998 64.1897 29.6948 79.9183C30.5521 96.8769 33.7876 107.55 36.4833 114.351C31.3919 112.226 23.7549 107.124 18.2392 100.323C14.845 96.0719 15.398 79.0681 18.2392 68.4406Z" fill="#F0CD28"/>
<path d="M36.0594 83.3189C36.0594 70.1409 41.9994 53.9872 49.6364 46.3354C41.1508 68.0154 46.2422 84.1691 47.9393 89.2702C52.3524 102.535 64.3823 114.149 70.0019 119.027C63.2134 120.303 54.7278 120.728 45.3936 117.752C38.1937 111.489 36.0594 89.2703 36.0594 83.3189Z" fill="#1EB423"/>
<path d="M61.9404 97.7724C58.9704 93.6064 50.9091 82.894 50.9091 70.5662C70.8138 100.42 95.0344 100.748 103.096 99.4727C95.0344 108.825 90.3673 110.95 84.4273 114.351C80.1845 116.052 65.249 102.413 61.9404 97.7724Z" fill="#E11E0F"/>
<path fill-rule="evenodd" clip-rule="evenodd" d="M73.2123 49.0984C68.5819 49.0984 64.8282 45.1891 64.8282 40.3666C64.8282 35.5441 68.5819 31.6348 73.2123 31.6348C77.8427 31.6348 81.5964 35.5441 81.5964 40.3666C81.5964 45.1891 77.8427 49.0984 73.2123 49.0984ZM74.8876 45.6058C73.0354 45.6058 71.534 44.042 71.534 42.1131C71.534 40.1841 73.0354 38.6203 74.8876 38.6203C76.7398 38.6203 78.2413 40.1841 78.2413 42.1131C78.2413 44.042 76.7398 45.6058 74.8876 45.6058Z" fill="#353535"/>
<path d="M10.6024 88.8453C1.69245 70.141 3.38958 48.8861 15.8413 31.8823C14.6004 31.0321 5.08671 24.6556 5.08671 17.0039C9.22309 20.8297 14.3638 20.8297 15.8413 20.8297C6.32762 14.0282 8.96066 1.61822 9.22309 0C14.1868 3.40078 24.4069 14.0282 36.0593 14.8784C58.9705 3.82587 82.4371 11.0525 95.0344 21.6973C84.8172 16.0216 58.6234 10.2936 33.6933 30.8134C13.7493 47.2293 8.014 76.9117 10.6024 88.8453Z" fill="#196ED2"/>
<path d="M110.309 41.2342C117.946 59.9385 116.673 76.5173 108.611 90.9705C107.339 64.1894 91.7915 57.5007 84.2688 54.9621C85.6506 56.8661 88.414 59.246 89.3351 63.5299C90.7481 70.1011 100.369 74.2391 102.672 75.6671C94.3814 83.2829 81.9629 83.0944 75.0933 83.7439C64.4862 48.4609 95.5041 35.7332 110.309 41.2342Z" fill="#353535"/>
</svg>
