<svg width="35" height="35" viewBox="0 0 35 35" fill="none" xmlns="http://www.w3.org/2000/svg">
<path fill-rule="evenodd" clip-rule="evenodd" d="M33 9.53625V25.4637C33 29.6259 29.6259 33 25.4638 33C21.5671 33 18.3612 30.0427 17.968 26.25H15.9595C16.3593 31.1489 20.4618 35 25.4638 35C30.7305 35 35 30.7305 35 25.4637V9.53625C35 4.26953 30.7305 0 25.4638 0C20.4618 0 16.3593 3.85108 15.9595 8.75H17.968C18.3612 4.95734 21.5671 2 25.4638 2C29.6259 2 33 5.37409 33 9.53625Z" fill="black"/>
<path d="M29.1235 17.7071C29.514 17.3166 29.514 16.6834 29.1235 16.2929L22.7595 9.92893C22.369 9.53841 21.7358 9.53841 21.3453 9.92893C20.9548 10.3195 20.9548 10.9526 21.3453 11.3431L27.0022 17L21.3453 22.6569C20.9548 23.0474 20.9548 23.6805 21.3453 24.0711C21.7358 24.4616 22.369 24.4616 22.7595 24.0711L29.1235 17.7071ZM14.0554 17L14.0554 16H14.0554L14.0554 17ZM4.60538e-08 18L14.0554 18L14.0554 16L-4.60538e-08 16L4.60538e-08 18ZM14.0554 18L28.4164 18L28.4164 16L14.0554 16L14.0554 18Z" fill="black"/>
</svg>
