<svg width="47" height="50" viewBox="0 0 47 50" fill="none" xmlns="http://www.w3.org/2000/svg">
<path d="M5.89088 28.5169C7.07471 24.0888 11.1944 15.0555 20.8142 10.6274C15.5755 16.4253 10.3328 26.7457 10.6641 33.2993C11.0212 40.3654 12.3694 44.8123 13.4926 47.6463C11.3712 46.7607 8.18909 44.6352 5.89089 41.8012C4.47662 40.03 4.70706 32.945 5.89088 28.5169Z" fill="#F0CD28"/>
<path d="M13.316 34.7162C13.316 29.2253 15.791 22.4946 18.9731 19.3064C15.4374 28.3397 17.5588 35.0704 18.266 37.1959C20.1048 42.7229 25.1172 47.562 27.4587 49.5946C24.6302 50.126 21.0945 50.3031 17.2053 49.0633C14.2053 46.4539 13.316 37.1959 13.316 34.7162Z" fill="#1EB423"/>
<path d="M24.0998 40.7385C22.8623 39.0027 19.5034 34.5392 19.5034 29.4026C27.797 41.8417 37.8889 41.9784 41.2478 41.447C37.8889 45.3437 35.9443 46.2293 33.4693 47.6463C31.7015 48.3548 25.4783 42.6722 24.0998 40.7385Z" fill="#E11E0F"/>
<path fill-rule="evenodd" clip-rule="evenodd" d="M28.7964 20.4577C26.8671 20.4577 25.303 18.8288 25.303 16.8194C25.303 14.8101 26.8671 13.1812 28.7964 13.1812C30.7258 13.1812 32.2898 14.8101 32.2898 16.8194C32.2898 18.8288 30.7258 20.4577 28.7964 20.4577ZM29.4946 19.0024C28.7228 19.0024 28.0972 18.3508 28.0972 17.5471C28.0972 16.7434 28.7228 16.0918 29.4946 16.0918C30.2663 16.0918 30.8919 16.7434 30.8919 17.5471C30.8919 18.3508 30.2663 19.0024 29.4946 19.0024Z" fill="#353535"/>
<path d="M2.7089 37.0188C-1.00357 29.2254 -0.296429 20.3692 4.89179 13.2843C4.37474 12.93 0.410706 10.2732 0.410706 7.08495C2.1342 8.67906 4.27615 8.67906 4.89179 8.67906C0.927753 5.84508 2.02485 0.674258 2.1342 0C4.20239 1.41699 8.4608 5.84508 13.3159 6.19933C22.8623 1.59411 32.64 4.60522 37.8889 9.04055C33.6317 6.67568 22.7177 4.289 12.3301 12.8389C4.02011 19.6789 1.63041 32.0466 2.7089 37.0188Z" fill="#196ED2"/>
<path d="M44.2532 17.181C47.4353 24.9744 46.9049 31.8822 43.546 37.9044C43.0157 26.7456 36.5377 23.9586 33.4033 22.9009C33.979 23.6942 35.1304 24.6859 35.5142 26.4708C36.1029 29.2088 40.1116 30.933 41.0711 31.528C37.6168 34.7012 32.4425 34.6227 29.5801 34.8933C25.1605 20.192 38.0846 14.8889 44.2532 17.181Z" fill="#353535"/>
</svg>
