<svg width="49" height="54" viewBox="0 0 49 54" fill="none" xmlns="http://www.w3.org/2000/svg">
<path d="M38.0028 15.5879C44.2343 9.18798 40.1782 4.78101 37.3712 3.37752L33.3713 8.21957C33.2627 8.42094 33.0521 8.42094 34.9468 10.5262C38.9468 12.2104 38.4238 13.6932 38.0028 15.5879Z" fill="url(#paint0_linear_52_78)"/>
<path d="M36.9504 3.16699L35.2662 5.0617L33.582 4.21963C32.5294 1.27229 30.2136 2.32491 29.7926 2.74596C20.1085 4.0091 19.6874 13.9037 19.0558 16.2195C18.5506 14.7037 18.9857 10.2546 19.2664 8.21958C19.126 8.28975 18.6348 8.51431 17.7927 8.85115C17.9611 8.17747 19.9681 6.04415 20.9506 5.0617C20.2488 5.34241 18.5085 6.07224 17.1611 6.74591C17.6664 5.56698 21.7225 3.30736 23.6874 2.32491C23.126 2.32491 21.54 2.40912 19.6874 2.74596C20.1085 1.90386 25.7926 0.219654 31.8978 0.00912989C36.782 -0.159289 37.3013 2.04419 36.9504 3.16699Z" fill="url(#paint1_linear_52_78)"/>
<path d="M30.0029 3.37756C30.5643 2.74599 31.9397 1.9881 32.9503 4.00913C32.1082 4.6407 30.845 4.85122 30.0029 3.37756Z" fill="white" stroke="black" stroke-width="0.2"/>
<path d="M29.3715 3.58806C24.1505 4.09332 21.3014 9.8336 20.5295 12.6406C20.9506 17.6932 18.4243 20.851 16.9506 21.9036C15.4769 27.5878 18.2137 46.7455 18.4243 48.6402C20.1085 47.5876 28.5294 47.377 31.2662 48.6402C36.1083 29.693 34.4241 23.3773 34.4241 21.9036C33.1609 20.851 32.5294 20.2194 31.2662 16.6405C30.4241 12.6406 34.003 11.588 34.4241 11.3774C34.7609 11.209 34.5644 10.8862 34.4241 10.7459L32.5294 8.43011L34.8451 5.48277L33.1609 4.64068C31.8978 5.6933 30.2136 4.8512 29.3715 3.58806Z" fill="url(#paint2_linear_52_78)"/>
<path d="M12.9506 12.8511C11.2664 17.6931 14.9155 21.0615 16.319 21.6931C15.0558 27.1667 16.9505 43.5876 17.5821 47.1665C14.4242 44.2191 12.1085 37.2718 9.7927 32.2193C9.7927 35.1666 10.4243 41.4823 12.319 48.4296C8.31902 44.2191 8.10851 41.4823 6.63484 37.6929C5.79275 40.7244 6.28397 44.7104 6.63484 46.3244C3.77172 42.956 2.9156 32.5701 2.84544 27.7983C0.992854 31.3351 2.07353 38.956 2.84544 42.3244C-1.36504 31.7982 0.108589 27.3772 0.95072 24.0088C4.95067 11.7985 12.9506 10.7458 15.0558 10.5353C14.2137 10.9564 13.5821 11.3774 12.9506 12.8511Z" fill="url(#paint3_linear_52_78)"/>
<path d="M37.3712 20.851C36.7397 21.6931 36.1081 22.1141 35.0555 22.1141C36.3186 27.5877 33.3713 44.0086 32.7397 47.5875C35.8976 44.6402 38.0028 37.0613 40.3186 32.0088C40.3186 34.9561 38.6344 41.6929 36.7397 48.6401C40.7397 44.4297 41.3712 41.0613 42.8449 37.2719C43.687 40.3034 42.9852 44.7104 42.6344 46.3244C45.4975 42.956 45.9326 31.9386 46.0027 27.1667C47.8553 30.7035 48.4588 36.2192 47.6869 39.5876C49.5817 32.8508 48.9501 28.2193 48.108 24.8509C46.3711 17.9037 40.1081 17.0616 38.0028 16.851C38.8449 17.2721 38.3186 19.5879 37.3712 20.851Z" fill="url(#paint4_linear_52_78)"/>
<path d="M32.8418 3.99996C32.6312 4.21049 32.6312 4.21049 32.2102 4.42101C31.8614 4.42101 31.5786 4.34877 31.5786 3.99996C31.5786 3.65116 31.8614 3.36839 32.2102 3.36839C32.559 3.36839 32.8418 3.65116 32.8418 3.99996Z" fill="black"/>
<path d="M10 54C16.1145 49.1257 28.9373 45.7512 39 54C32.012 50.1201 17.4072 50.7005 10 54Z" fill="url(#paint5_linear_52_78)"/>
<defs>
<linearGradient id="paint0_linear_52_78" x1="37.2671" y1="3.37752" x2="39.4765" y2="14.3248" gradientUnits="userSpaceOnUse">
<stop/>
<stop offset="1" stop-color="#555555"/>
</linearGradient>
<linearGradient id="paint1_linear_52_78" x1="36.6313" y1="1.26314" x2="15.3683" y2="4.63153" gradientUnits="userSpaceOnUse">
<stop stop-color="#46A243"/>
<stop offset="0.11213" stop-color="#4DC151"/>
<stop offset="0.33596" stop-color="#FAFF00"/>
<stop offset="0.536458" stop-color="#E3405A"/>
<stop offset="0.90123" stop-color="#2D80C5"/>
</linearGradient>
<linearGradient id="paint2_linear_52_78" x1="25.681" y1="3.58806" x2="25.681" y2="48.6402" gradientUnits="userSpaceOnUse">
<stop stop-color="#41BF54"/>
<stop offset="0.411458" stop-color="#FBE02C"/>
<stop offset="1" stop-color="#EA3B57"/>
</linearGradient>
<linearGradient id="paint3_linear_52_78" x1="8.79104" y1="10.5353" x2="8.79104" y2="48.4296" gradientUnits="userSpaceOnUse">
<stop stop-color="#7ECA47"/>
<stop offset="0.37128" stop-color="#FAD42F"/>
<stop offset="1" stop-color="#EB4554"/>
</linearGradient>
<linearGradient id="paint4_linear_52_78" x1="40.8325" y1="16.851" x2="40.8325" y2="48.6401" gradientUnits="userSpaceOnUse">
<stop stop-color="#B8D43B"/>
<stop offset="0.255208" stop-color="#FAD92E"/>
<stop offset="1" stop-color="#EC4B53"/>
</linearGradient>
<linearGradient id="paint5_linear_52_78" x1="10.5241" y1="52.3128" x2="39.0237" y2="54.4309" gradientUnits="userSpaceOnUse">
<stop stop-color="#656565"/>
<stop offset="0.484375"/>
<stop offset="1" stop-color="#726E6E"/>
</linearGradient>
</defs>
</svg>
