<svg width="20" height="20" viewBox="0 0 20 20" fill="none" xmlns="http://www.w3.org/2000/svg">
<path d="M3.15581 11.4068C3.63375 9.63554 5.29699 6.02221 9.18079 4.25098C7.06578 6.57011 4.94913 10.6983 5.08288 13.3197C5.22709 16.1462 5.77137 17.9249 6.22484 19.0585C5.36837 18.7043 4.08366 17.8541 3.15581 16.7205C2.58483 16.012 2.67787 13.178 3.15581 11.4068Z" fill="#F0CD28"/>
<path d="M6.15334 13.8866C6.15334 11.6902 7.15256 8.99795 8.43727 7.72266C7.00981 11.336 7.86628 14.0283 8.15177 14.8785C8.89415 17.0893 10.9178 19.0249 11.8632 19.838C10.7212 20.0505 9.29374 20.1213 7.72354 19.6254C6.51237 18.5817 6.15334 14.8785 6.15334 13.8866Z" fill="#1EB423"/>
<path d="M10.5071 16.2954C10.0075 15.601 8.65144 13.8156 8.65144 11.761C11.9998 16.7366 16.0742 16.7913 17.4303 16.5788C16.0742 18.1374 15.2891 18.4917 14.2899 19.0585C13.5762 19.3419 11.0637 17.0688 10.5071 16.2954Z" fill="#E11E0F"/>
<path d="M9.71435 6.64285C9.14291 8.92856 9.92865 10.5 10.5001 11.2143C12.0715 8.71426 12.6028 8.42858 14.6028 6.64286C14.717 5.27144 12.6543 4.44169 11.7734 4.29883C10.5001 4.29883 10.0715 5.21427 9.71435 6.64285Z" fill="white"/>
<path fill-rule="evenodd" clip-rule="evenodd" d="M12.4032 8.18307C11.6243 8.18307 10.9928 7.53151 10.9928 6.72777C10.9928 5.92402 11.6243 5.27246 12.4032 5.27246C13.1822 5.27246 13.8136 5.92402 13.8136 6.72777C13.8136 7.53151 13.1822 8.18307 12.4032 8.18307ZM12.6853 7.60099C12.3738 7.60099 12.1212 7.34037 12.1212 7.01887C12.1212 6.69737 12.3738 6.43675 12.6853 6.43675C12.9969 6.43675 13.2495 6.69737 13.2495 7.01887C13.2495 7.34037 12.9969 7.60099 12.6853 7.60099Z" fill="#353535"/>
<path d="M1.87103 14.8075C0.372206 11.6902 0.657698 8.14769 2.75233 5.31371C2.54358 5.17201 0.943189 4.10927 0.943189 2.83398C1.63901 3.47162 2.50378 3.47162 2.75233 3.47162C1.15194 2.33803 1.59487 0.269703 1.63901 0C2.474 0.566796 4.19324 2.33803 6.1534 2.47973C10.0075 0.637645 13.9551 1.84209 16.0742 3.61622C14.3555 2.67027 9.94914 1.7156 5.7554 5.13557C2.40041 7.87154 1.43562 12.8186 1.87103 14.8075Z" fill="#196ED2"/>
<path d="M18.6436 6.87233C19.9283 9.9897 19.7142 12.7528 18.3581 15.1617C18.144 10.6982 15.5286 9.58341 14.2632 9.16031C14.4956 9.47764 14.9604 9.87429 15.1154 10.5883C15.3531 11.6835 16.9715 12.3731 17.3589 12.6111C15.9643 13.8804 13.8753 13.849 12.7196 13.9573C10.9353 8.07677 16.1532 5.9555 18.6436 6.87233Z" fill="black"/>
</svg>
