<svg width="33" height="35" viewBox="0 0 33 35" fill="none" xmlns="http://www.w3.org/2000/svg">
<path d="M3.89758 19.9619C4.73398 16.8622 7.64465 10.5389 14.4413 7.43921C10.74 11.4977 7.03589 18.722 7.26995 23.3095C7.52231 28.2558 8.47481 31.3686 9.26839 33.3524C7.76956 32.7325 5.52131 31.2446 3.89758 29.2608C2.89836 28.021 3.06118 23.0615 3.89758 19.9619Z" fill="#F0CD28"/>
<path d="M9.14343 24.3012C9.14343 20.4577 10.8921 15.7462 13.1403 13.5144C10.6423 19.8377 12.1411 24.5492 12.6407 26.0371C13.9399 29.906 17.4813 33.2933 19.1356 34.7162C17.1372 35.0881 14.6391 35.2121 11.8913 34.3442C9.77173 32.5176 9.14343 26.0371 9.14343 24.3012Z" fill="#1EB423"/>
<path d="M16.7625 28.5169C15.8882 27.3019 13.5151 24.1774 13.5151 20.5818C19.3747 29.2892 26.5049 29.3848 28.8781 29.0129C26.5049 31.7406 25.131 32.3605 23.3823 33.3524C22.1333 33.8484 17.7365 29.8705 16.7625 28.5169Z" fill="#E11E0F"/>
<path d="M15.375 11.625C14.375 15.625 15.75 18.375 16.75 19.625C19.5 15.25 20.4297 14.75 23.9297 11.625C24.1297 9.22501 20.52 7.77295 18.9783 7.52295C16.75 7.52295 16 9.12497 15.375 11.625Z" fill="white"/>
<path fill-rule="evenodd" clip-rule="evenodd" d="M20.0808 14.3204C18.7177 14.3204 17.6126 13.1801 17.6126 11.7736C17.6126 10.367 18.7177 9.22681 20.0808 9.22681C21.4439 9.22681 22.549 10.367 22.549 11.7736C22.549 13.1801 21.4439 14.3204 20.0808 14.3204ZM20.5744 13.3016C20.0292 13.3016 19.5872 12.8455 19.5872 12.2829C19.5872 11.7203 20.0292 11.2642 20.5744 11.2642C21.1197 11.2642 21.5617 11.7203 21.5617 12.2829C21.5617 12.8455 21.1197 13.3016 20.5744 13.3016Z" fill="#353535"/>
<path d="M1.64931 25.9132C-0.97364 20.4578 -0.47403 14.2585 3.19158 9.29899C2.82627 9.05102 0.0255795 7.19122 0.0255795 4.95946C1.24327 6.07534 2.75661 6.07534 3.19158 6.07534C0.390886 4.09156 1.16601 0.471981 1.24327 0C2.7045 0.991893 5.71317 4.09156 9.14345 4.33953C15.8882 1.11588 22.7964 3.22365 26.5049 6.32839C23.4971 4.67298 15.786 3.0023 8.44695 8.98724C2.57571 13.7752 0.887333 22.4326 1.64931 25.9132Z" fill="#196ED2"/>
<path d="M31.0013 12.0266C33.2496 17.482 32.8748 22.3175 30.5017 26.5331C30.127 18.7219 25.5501 16.771 23.3356 16.0306C23.7423 16.5859 24.5558 17.2801 24.827 18.5295C25.243 20.4461 28.0752 21.6531 28.7531 22.0695C26.3126 24.2908 22.6568 24.2358 20.6344 24.4253C17.5119 14.1344 26.6431 10.4222 31.0013 12.0266Z" fill="black"/>
</svg>
