<svg width="65" height="65" viewBox="0 0 65 65" fill="none" xmlns="http://www.w3.org/2000/svg">
<g clip-path="url(#clip0_217_365)">
<path d="M32.5 65C50.4492 65 65 50.4492 65 32.5C65 14.5507 50.4492 0 32.5 0C14.5507 0 0 14.5507 0 32.5C0 50.4492 14.5507 65 32.5 65Z" fill="url(#paint0_linear_217_365)"/>
<path d="M21.999 34.8738L25.8556 45.5483C25.8556 45.5483 26.3371 46.5449 26.8523 46.5449C27.3675 46.5449 35.0471 38.5571 35.0471 38.5571L43.5838 22.0664L22.1338 32.1197L21.9941 34.8738H21.999Z" fill="#C8DAEA"/>
<path d="M27.1122 37.6133L26.3707 45.4807C26.3707 45.4807 26.0626 47.8929 28.47 45.4807C30.8822 43.0685 33.1885 41.2099 33.1885 41.2099L27.1122 37.6133Z" fill="#A9C6D8"/>
<path d="M22.0712 35.254L14.1412 32.6684C14.1412 32.6684 13.1926 32.2833 13.5008 31.4118C13.5634 31.2336 13.6886 31.0795 14.0689 30.8147C15.8263 29.5918 46.5978 18.5273 46.5978 18.5273C46.5978 18.5273 47.4645 18.2336 47.9797 18.431C48.2156 18.5177 48.3649 18.6188 48.49 18.9895C48.5382 19.1244 48.5623 19.4084 48.5575 19.6877C48.5575 19.8899 48.5286 20.0825 48.5093 20.3762C48.3215 23.3999 42.7123 45.967 42.7123 45.967C42.7123 45.967 42.3752 47.2862 41.1763 47.3344C40.7382 47.3488 40.2038 47.2621 39.5682 46.7132C37.2089 44.6814 29.0526 39.2021 27.2519 37.9984C27.1508 37.931 27.1219 37.8444 27.1026 37.7577C27.0786 37.6325 27.2134 37.4736 27.2134 37.4736C27.2134 37.4736 41.4123 24.854 41.7878 23.5299C41.8167 23.4288 41.706 23.3758 41.5567 23.4192C40.613 23.7658 24.2667 34.0888 22.4612 35.2299C22.3552 35.2973 22.0615 35.254 22.0615 35.254H22.0712Z" fill="white"/>
</g>
<defs>
<linearGradient id="paint0_linear_217_365" x1="32.5" y1="65" x2="32.5" y2="0" gradientUnits="userSpaceOnUse">
<stop stop-color="#1D93D2"/>
<stop offset="1" stop-color="#38B0E3"/>
</linearGradient>
<clipPath id="clip0_217_365">
<rect width="65" height="65" fill="white"/>
</clipPath>
</defs>
</svg>
