<svg width="65" height="65" viewBox="0 0 65 65" fill="none" xmlns="http://www.w3.org/2000/svg">
<g clip-path="url(#clip0_217_370)">
<path d="M32.5 65C50.4492 65 65 50.4492 65 32.5C65 14.5507 50.4492 0 32.5 0C14.5507 0 0 14.5507 0 32.5C0 50.4492 14.5507 65 32.5 65Z" fill="url(#paint0_linear_217_370)"/>
<path fill-rule="evenodd" clip-rule="evenodd" d="M48.1338 17.2657C44.2434 13.3706 39.0627 11.2231 33.5497 11.2231C22.1868 11.2231 12.9375 20.4676 12.9327 31.8306C12.9327 35.4609 13.8812 39.0094 15.6868 42.1343L12.7642 52.8135L23.6938 49.9487C26.703 51.5905 30.0975 52.4572 33.5449 52.4572H33.5545C44.9175 52.4572 54.1668 43.2128 54.1716 31.845C54.1716 26.3368 52.029 21.1609 48.1386 17.2657H48.1338ZM33.5497 48.9761H33.5449C30.4682 48.9761 27.4542 48.148 24.8253 46.588L24.1993 46.2172L17.7138 47.9168L19.4471 41.595L19.0379 40.945C17.3238 38.2198 16.4186 35.0661 16.4186 31.8306C16.4186 22.3839 24.1079 14.6994 33.5642 14.6994C38.143 14.6994 42.4427 16.4857 45.6782 19.7213C48.9138 22.9617 50.6953 27.2613 50.6905 31.8402C50.6905 41.2868 43.0012 48.9713 33.5545 48.9713L33.5497 48.9761ZM42.9482 36.1446C42.433 35.8846 39.9005 34.6424 39.4286 34.4691C38.9568 34.2957 38.6149 34.2091 38.2682 34.7291C37.9264 35.2443 36.9393 36.4046 36.636 36.7465C36.3375 37.0883 36.0342 37.1317 35.519 36.8765C35.0038 36.6165 33.3427 36.0772 31.3782 34.3198C29.8471 32.9524 28.8119 31.2672 28.5134 30.752C28.2149 30.2368 28.4797 29.9576 28.7397 29.7024C28.9708 29.4713 29.2549 29.1006 29.5101 28.802C29.7653 28.5035 29.8519 28.2868 30.0253 27.945C30.1986 27.6031 30.1119 27.2998 29.9819 27.0446C29.8519 26.7846 28.8216 24.252 28.393 23.2217C27.9742 22.2154 27.5505 22.355 27.2327 22.3357C26.9342 22.3213 26.5875 22.3165 26.2456 22.3165C25.9038 22.3165 25.3453 22.4465 24.8734 22.9617C24.4016 23.4768 23.0727 24.7239 23.0727 27.2565C23.0727 29.7891 24.9168 32.2398 25.1768 32.5817C25.4319 32.9235 28.8071 38.1283 33.9782 40.3576C35.206 40.8872 36.169 41.205 36.9153 41.4409C38.1479 41.8309 39.2745 41.778 40.1605 41.6431C41.1523 41.4939 43.2082 40.3961 43.6367 39.1924C44.0653 37.9887 44.0653 36.9583 43.9353 36.7417C43.8053 36.525 43.4634 36.3998 42.9482 36.1398V36.1446Z" fill="white"/>
</g>
<defs>
<linearGradient id="paint0_linear_217_370" x1="32.5" y1="60.2767" x2="32.5" y2="-4.72333" gradientUnits="userSpaceOnUse">
<stop stop-color="#78CD51"/>
<stop offset="1" stop-color="#A0FC84"/>
</linearGradient>
<clipPath id="clip0_217_370">
<rect width="65" height="65" fill="white"/>
</clipPath>
</defs>
</svg>
